<svg width="972" height="574" xmlns="http://www.w3.org/2000/svg" xmlns:xlink="http://www.w3.org/1999/xlink"><defs><circle id="b" cx="447" cy="251" r="52"/><filter x="-62.5%" y="-52.9%" width="225%" height="225%" filterUnits="objectBoundingBox" id="a"><feMorphology radius="5" in="SourceAlpha" result="shadowSpreadOuter1"/><feOffset dy="10" in="shadowSpreadOuter1" result="shadowOffsetOuter1"/><feGaussianBlur stdDeviation="25" in="shadowOffsetOuter1" result="shadowBlurOuter1"/><feColorMatrix values="0 0 0 0 0.160784314 0 0 0 0 0.152941176 0 0 0 0 0.17254902 0 0 0 0.5 0" in="shadowBlurOuter1"/></filter><linearGradient x1="9.492%" y1="13.34%" x2="92.184%" y2="78.271%" id="c"><stop stop-color="#00EEE9" offset="0%"/><stop stop-color="#00EB82" offset="100%"/></linearGradient><circle id="e" cx="35" cy="35" r="35"/><filter x="-92.9%" y="-78.6%" width="285.7%" height="285.7%" filterUnits="objectBoundingBox" id="d"><feMorphology radius="5" in="SourceAlpha" result="shadowSpreadOuter1"/><feOffset dy="10" in="shadowSpreadOuter1" result="shadowOffsetOuter1"/><feGaussianBlur stdDeviation="25" in="shadowOffsetOuter1" result="shadowBlurOuter1"/><feColorMatrix values="0 0 0 0 0.160784314 0 0 0 0 0.152941176 0 0 0 0 0.17254902 0 0 0 0.5 0" in="shadowBlurOuter1"/></filter><circle id="g" cx="35" cy="35" r="35"/><filter x="-92.9%" y="-78.6%" width="285.7%" height="285.7%" filterUnits="objectBoundingBox" id="f"><feMorphology radius="5" in="SourceAlpha" result="shadowSpreadOuter1"/><feOffset dy="10" in="shadowSpreadOuter1" result="shadowOffsetOuter1"/><feGaussianBlur stdDeviation="25" in="shadowOffsetOuter1" result="shadowBlurOuter1"/><feColorMatrix values="0 0 0 0 0.160784314 0 0 0 0 0.152941176 0 0 0 0 0.17254902 0 0 0 0.5 0" in="shadowBlurOuter1"/></filter><circle id="i" cx="35" cy="35" r="35"/><filter x="-92.9%" y="-78.6%" width="285.7%" height="285.7%" filterUnits="objectBoundingBox" id="h"><feMorphology radius="5" in="SourceAlpha" result="shadowSpreadOuter1"/><feOffset dy="10" in="shadowSpreadOuter1" result="shadowOffsetOuter1"/><feGaussianBlur stdDeviation="25" in="shadowOffsetOuter1" result="shadowBlurOuter1"/><feColorMatrix values="0 0 0 0 0.160784314 0 0 0 0 0.152941176 0 0 0 0 0.17254902 0 0 0 0.5 0" in="shadowBlurOuter1"/></filter><rect id="j" x="0" y="0" width="28" height="22" rx="2"/><circle id="m" cx="35" cy="35" r="35"/><filter x="-92.9%" y="-78.6%" width="285.7%" height="285.7%" filterUnits="objectBoundingBox" id="l"><feMorphology radius="5" in="SourceAlpha" result="shadowSpreadOuter1"/><feOffset dy="10" in="shadowSpreadOuter1" result="shadowOffsetOuter1"/><feGaussianBlur stdDeviation="25" in="shadowOffsetOuter1" result="shadowBlurOuter1"/><feColorMatrix values="0 0 0 0 0.160784314 0 0 0 0 0.152941176 0 0 0 0 0.17254902 0 0 0 0.5 0" in="shadowBlurOuter1"/></filter><circle id="o" cx="35" cy="35" r="35"/><filter x="-92.9%" y="-78.6%" width="285.7%" height="285.7%" filterUnits="objectBoundingBox" id="n"><feMorphology radius="5" in="SourceAlpha" result="shadowSpreadOuter1"/><feOffset dy="10" in="shadowSpreadOuter1" result="shadowOffsetOuter1"/><feGaussianBlur stdDeviation="25" in="shadowOffsetOuter1" result="shadowBlurOuter1"/><feColorMatrix values="0 0 0 0 0.160784314 0 0 0 0 0.152941176 0 0 0 0 0.17254902 0 0 0 0.5 0" in="shadowBlurOuter1"/></filter><circle id="q" cx="35" cy="35" r="35"/><filter x="-92.9%" y="-78.6%" width="285.7%" height="285.7%" filterUnits="objectBoundingBox" id="p"><feMorphology radius="5" in="SourceAlpha" result="shadowSpreadOuter1"/><feOffset dy="10" in="shadowSpreadOuter1" result="shadowOffsetOuter1"/><feGaussianBlur stdDeviation="25" in="shadowOffsetOuter1" result="shadowBlurOuter1"/><feColorMatrix values="0 0 0 0 0.160784314 0 0 0 0 0.152941176 0 0 0 0 0.17254902 0 0 0 0.5 0" in="shadowBlurOuter1"/></filter><circle id="s" cx="35" cy="35" r="35"/><filter x="-92.9%" y="-78.6%" width="285.7%" height="285.7%" filterUnits="objectBoundingBox" id="r"><feMorphology radius="5" in="SourceAlpha" result="shadowSpreadOuter1"/><feOffset dy="10" in="shadowSpreadOuter1" result="shadowOffsetOuter1"/><feGaussianBlur stdDeviation="25" in="shadowOffsetOuter1" result="shadowBlurOuter1"/><feColorMatrix values="0 0 0 0 0.160784314 0 0 0 0 0.152941176 0 0 0 0 0.17254902 0 0 0 0.5 0" in="shadowBlurOuter1"/></filter><circle id="u" cx="35" cy="35" r="35"/><filter x="-92.9%" y="-78.6%" width="285.7%" height="285.7%" filterUnits="objectBoundingBox" id="t"><feMorphology radius="5" in="SourceAlpha" result="shadowSpreadOuter1"/><feOffset dy="10" in="shadowSpreadOuter1" result="shadowOffsetOuter1"/><feGaussianBlur stdDeviation="25" in="shadowOffsetOuter1" result="shadowBlurOuter1"/><feColorMatrix values="0 0 0 0 0.160784314 0 0 0 0 0.152941176 0 0 0 0 0.17254902 0 0 0 0.5 0" in="shadowBlurOuter1"/></filter><circle id="w" cx="35" cy="35" r="35"/><filter x="-92.9%" y="-78.6%" width="285.7%" height="285.7%" filterUnits="objectBoundingBox" id="v"><feMorphology radius="5" in="SourceAlpha" result="shadowSpreadOuter1"/><feOffset dy="10" in="shadowSpreadOuter1" result="shadowOffsetOuter1"/><feGaussianBlur stdDeviation="25" in="shadowOffsetOuter1" result="shadowBlurOuter1"/><feColorMatrix values="0 0 0 0 0.160784314 0 0 0 0 0.152941176 0 0 0 0 0.17254902 0 0 0 0.5 0" in="shadowBlurOuter1"/></filter><circle id="y" cx="35" cy="35" r="35"/><filter x="-92.9%" y="-78.6%" width="285.7%" height="285.7%" filterUnits="objectBoundingBox" id="x"><feMorphology radius="5" in="SourceAlpha" result="shadowSpreadOuter1"/><feOffset dy="10" in="shadowSpreadOuter1" result="shadowOffsetOuter1"/><feGaussianBlur stdDeviation="25" in="shadowOffsetOuter1" result="shadowBlurOuter1"/><feColorMatrix values="0 0 0 0 0.160784314 0 0 0 0 0.152941176 0 0 0 0 0.17254902 0 0 0 0.5 0" in="shadowBlurOuter1"/></filter></defs><g fill="none" fill-rule="evenodd"><path d="M68 62.117h218.688c38.216 8.058 69.769 45.164 94.66 111.317 24.89 66.153 59.074 101.048 102.552 104.683" stroke="#00EEE9" stroke-width="20" opacity=".3" stroke-linecap="round" stroke-linejoin="round"/><path d="M68 148.117h218.688c38.216 4.85 69.769 27.182 94.66 66.996 24.89 39.815 59.074 60.816 102.552 63.004" stroke="#00EEE9" stroke-width="20" opacity=".3" stroke-linecap="round" stroke-linejoin="round"/><path d="M68 234.117h218.688c38.216 1.642 69.769 9.2 94.66 22.676 24.89 13.476 59.074 20.584 102.552 21.324" stroke="#00EEE9" stroke-width="20" opacity=".3" stroke-linecap="round" stroke-linejoin="round"/><path d="M68 405.945h218.688c38.216-4.775 69.769-26.763 94.66-65.965 24.89-39.202 59.074-59.88 102.552-62.035" stroke="#00EEE9" stroke-width="20" opacity=".3" stroke-linecap="round" stroke-linejoin="round"/><path d="M68 491.945h218.688c38.216-7.983 69.769-44.745 94.66-110.286 24.89-65.54 59.074-100.112 102.552-103.714" stroke="#00EEE9" stroke-width="20" opacity=".3" stroke-linecap="round" stroke-linejoin="round"/><path d="M68 319.945h218.688c38.216-1.567 69.769-8.782 94.66-21.645 24.89-12.863 59.074-19.648 102.552-20.355" stroke="#00EEE9" stroke-width="20" opacity=".3" stroke-linecap="round" stroke-linejoin="round"/><path d="M899.8 98.117H681.113c-38.217 6.715-69.77 37.637-94.66 92.764-24.891 55.128-59.075 84.207-102.553 87.236" stroke="#00EB82" stroke-width="20" opacity=".3" stroke-linecap="round" stroke-linejoin="round"/><path d="M899.8 208.117H681.113c-38.217 2.612-69.77 14.637-94.66 36.075-24.891 21.439-59.075 32.747-102.553 33.925" stroke="#00EB82" stroke-width="20" opacity=".3" stroke-linecap="round" stroke-linejoin="round"/><path d="M899.8 456.945H681.113c-38.217-6.677-69.77-37.427-94.66-92.248-24.891-54.822-59.075-83.739-102.553-86.752" stroke="#00EB82" stroke-width="20" opacity=".3" stroke-linecap="round" stroke-linejoin="round"/><path d="M899.8 347.945H681.113c-38.217-2.611-69.77-14.636-94.66-36.075-24.891-21.438-59.075-32.747-102.553-33.925" stroke="#00EB82" stroke-width="20" opacity=".3" stroke-linecap="round" stroke-linejoin="round"/><g transform="translate(37 27)"><use fill="#000" filter="url(#a)" xlink:href="#b"/><use fill="#FFF" xlink:href="#b"/></g><path d="M446.74 228.583c-12.219 0-22.157 9.94-22.157 22.159 0 12.213 9.938 22.152 22.156 22.152 12.216 0 22.155-9.939 22.155-22.155 0-12.218-9.939-22.156-22.155-22.156zM447 279c-15.44 0-28-12.562-28-27.997C419 235.56 431.56 223 447 223c15.439 0 28 12.562 28 27.999 0 15.439-12.561 27.997-28 27.997V279z" fill="url(#c)" transform="translate(37 27)"/><g transform="translate(37 285)"><use fill="#000" filter="url(#d)" xlink:href="#e"/><use fill="#FFF" xlink:href="#e"/></g><g transform="translate(37 199)"><use fill="#000" filter="url(#f)" xlink:href="#g"/><use fill="#FFF" xlink:href="#g"/></g><g transform="translate(58 221)"><path d="M11 0a6.986 6.986 0 0 1 5.427 2.578A6 6 0 0 1 25 8.022 6.5 6.5 0 0 1 21.5 20h-15A6.5 6.5 0 0 1 4.017 7.49 7 7 0 0 1 11 0z" fill="#00EEE9" opacity=".3"/><rect fill="#00EEE9" x="13" y="13" width="2" height="13" rx="1"/><path stroke="#00EEE9" stroke-width="2" stroke-linecap="round" stroke-linejoin="round" d="M9.997 16.999l4-4 4 4"/></g><g transform="translate(38 113)"><use fill="#000" filter="url(#h)" xlink:href="#i"/><use fill="#FFF" xlink:href="#i"/></g><g transform="translate(59 137)"><mask id="k" fill="#fff"><use xlink:href="#j"/></mask><use fill="#00EEE9" opacity=".4" xlink:href="#j"/><path d="M0 0h28L16.121 11.879a3 3 0 0 1-4.242 0L0 0z" fill="#00EEE9" mask="url(#k)"/></g><g transform="translate(38 27)"><use fill="#000" filter="url(#l)" xlink:href="#m"/><use fill="#FFF" xlink:href="#m"/></g><g stroke="#00EEE9" stroke-linecap="round" stroke-linejoin="round" stroke-width="2"><path d="M66 57l-5 5 5 5m14-10l5 5-5 5" opacity=".5"/><path d="M71 71l4-18"/></g><g transform="translate(37 457)"><use fill="#000" filter="url(#n)" xlink:href="#o"/><use fill="#FFF" xlink:href="#o"/><path d="M47 41v6a2 2 0 0 1-2 2H25a2 2 0 0 1-2-2v-6h24zm-2-20a2 2 0 0 1 2 2v6H23v-6a2 2 0 0 1 2-2h20zM23 31h24v8H23v-8z" fill="#00EEE9"/><circle fill="#FFF" cx="27" cy="25" r="1"/><circle fill="#FFF" cx="27" cy="35" r="1"/><circle fill="#FFF" cx="27" cy="45" r="1"/></g><g transform="translate(37 371)"><use fill="#000" filter="url(#p)" xlink:href="#q"/><use fill="#FFF" xlink:href="#q"/></g><g transform="translate(63 392)"><path d="M2 0h14a2 2 0 0 1 2 2v24a2 2 0 0 1-2 2H2a2 2 0 0 1-2-2V2a2 2 0 0 1 2-2z" fill="#00EEE9"/><circle fill="#FFF" cx="9" cy="23" r="2"/></g><g transform="translate(865 172)"><use fill="#000" filter="url(#r)" xlink:href="#s"/><use fill="#FFF" xlink:href="#s"/></g><g transform="translate(865 311)"><use fill="#000" filter="url(#t)" xlink:href="#u"/><use fill="#FFF" xlink:href="#u"/></g><g transform="translate(865 63)"><use fill="#000" filter="url(#v)" xlink:href="#w"/><use fill="#FFF" xlink:href="#w"/></g><g transform="translate(865 421)"><use fill="#000" filter="url(#x)" xlink:href="#y"/><use fill="#FFF" xlink:href="#y"/></g><g transform="translate(889 442)" fill="#00EB82"><rect opacity=".3" width="22.4" height="8.4" rx="2"/><path d="M8.4 13.2V26a2 2 0 0 1-2 2H2a2 2 0 0 1-2-2V13.2a2 2 0 0 1 2-2h4.4a2 2 0 0 1 2 2z"/><rect opacity=".3" x="11.2" y="11.2" width="11.2" height="7" rx="2"/><rect opacity=".3" x="11.2" y="21" width="11.2" height="7" rx="2"/></g><path d="M898 332h9l7 7v15a2 2 0 0 1-2 2h-14a2 2 0 0 1-2-2v-20a2 2 0 0 1 2-2z" fill="#00EB82" opacity=".3"/><path d="M907 332l3.5 3.5 3.5 3.5h-6a1 1 0 0 1-1-1v-6zm-19 4h9l7 7v15a2 2 0 0 1-2 2h-14a2 2 0 0 1-2-2v-20a2 2 0 0 1 2-2z" fill="#00EB82"/><path d="M897 336l3.5 3.5 3.5 3.5h-6a1 1 0 0 1-1-1v-6z" fill="#06D77A"/><g fill="#00EB82"><path opacity=".5" d="M908.231 98.765l2.679 5h-22.5l2.678-5z"/><path d="M911.981 105.765l1.101 2.056a2 2 0 0 1-1.763 2.944H888a2 2 0 0 1-1.763-2.944l1.101-2.056h24.643z" opacity=".3"/><path d="M903.41 89.765h-7.5l1.987-3.71a2 2 0 0 1 3.526 0l1.987 3.71z"/><path opacity=".8" d="M904.481 91.765l2.679 5h-15l2.678-5z"/></g><g transform="translate(886 196)" fill="#00EB82"><rect opacity=".3" width="28" height="17" rx="6"/><rect x="12" y="13" width="4" height="2" rx="1"/><circle cx="7.5" cy="8.5" r="3.5"/><path d="M13 17h2v4h-2z"/><circle cx="20.5" cy="8.5" r="3.5"/><rect x="9" y="21" width="10" height="2" rx="1"/></g><path d="M86 325v6a3 3 0 0 1-3 3h-6v-2h6a1 1 0 0 0 1-1v-6h2zm-26 0v6a1 1 0 0 0 1 1h6v2h-6a3 3 0 0 1-3-3v-6h2zm23-19a3 3 0 0 1 3 3v6h-2v-6a1 1 0 0 0-1-1h-6v-2h6zm-25 3a3 3 0 0 1 3-3h6v2h-6a1 1 0 0 0-1 1v6h-2v-6z" fill="#00EEE9" fill-rule="nonzero"/></g></svg>